{
  "accessors": [
    {
      "bufferView": 0,
      "componentType": 5125,
      "count": 3060,
      "type": "SCALAR"
    },
    {
      "bufferView": 1,
      "componentType": 5126,
      "count": 906,
      "max": [
        0.0884098818842784,
        0.07219107650373541,
        0.009999999747378752
      ],
      "min": [
        -0.08840988188427845,
        -0.07219107650373549,
        -0.009999999747378752
      ],
      "type": "VEC3"
    },
    {
      "bufferView": 2,
      "componentType": 5126,
      "count": 906,
      "max": [
        0.999986939087566,
        1.0,
        1.0
      ],
      "min": [
        -0.9999952082486535,
        -1.0,
        -1.0
      ],
      "type": "VEC3"
    },
    {
      "bufferView": 3,
      "componentType": 5126,
      "count": 906,
      "max": [
        1.0,
        0.9434948868403802
      ],
      "min": [
        0.0,
        0.0
      ],
      "type": "VEC2"
    }
  ],
  "asset": {
    "generator": "Adobe Illustrator",
    "version": "2.0"
  },
  "bufferViews": [
    {
      "buffer": 0,
      "byteLength": 12240,
      "target": 34963
    },
    {
      "buffer": 0,
      "byteLength": 10872,
      "byteOffset": 12240,
      "target": 34962
    },
    {
      "buffer": 0,
      "byteLength": 10872,
      "byteOffset": 23112,
      "target": 34962
    },
    {
      "buffer": 0,
      "byteLength": 7248,
      "byteOffset": 33984,
      "target": 34962
    }
  ],
  "buffers": [
    {
      "byteLength": 41232,
      "uri": "data:application/octet-stream;base64,"
    }
  ],
  "materials": [
    {
      "doubleSided": true,
      "pbrMetallicRoughness": {
        "baseColorFactor": [
          0.0,
          0.0,
          0.0,
          1.0
        ],
        "metallicFactor": 0.0,
        "roughnessFactor": 0.4000000059604645
      }
    }
  ],
  "meshes": [
    {
      "primitives": [
        {
          "attributes": {
            "NORMAL": 2,
            "POSITION": 1,
            "TEXCOORD_0": 3
          },
          "indices": 0,
          "material": 0,
          "mode": 4
        }
      ]
    }
  ],
  "nodes": [
    {
      "mesh": 0
    }
  ],
  "scenes": [
    {
      "nodes": [
        0
      ]
    }
  ]
}
