{
  "asset": {
    "generator": "Adobe Illustrator",
    "version": "2.0"
  },
  "buffers": [
    {
      "uri": "wall2.bin",
      "byteLength": 41232
    }
  ],
  "bufferViews": [
    {
      "buffer": 0,
      "byteOffset": 0,
      "byteLength": 10872,
      "byteStride": 12,
      "target": 34962
    },
    {
      "buffer": 0,
      "byteOffset": 10872,
      "byteLength": 10872,
      "byteStride": 12,
      "target": 34962
    },
    {
      "buffer": 0,
      "byteOffset": 21744,
      "byteLength": 7248,
      "byteStride": 8,
      "target": 34962
    },
    {
      "buffer": 0,
      "byteOffset": 28992,
      "byteLength": 12240,
      "target": 34963
    }
  ],
  "accessors": [
    {
      "bufferView": 0,
      "byteOffset": 0,
      "componentType": 5126,
      "normalized": false,
      "count": 906,
      "min": [
        -0.999995231628418,
        -1,
        -1
      ],
      "max": [
        0.9999869465827942,
        1,
        1
      ],
      "type": "VEC3"
    },
    {
      "bufferView": 1,
      "byteOffset": 0,
      "componentType": 5126,
      "normalized": false,
      "count": 906,
      "min": [
        -0.08840987831354141,
        -0.07219107449054718,
        -0.009999999776482582
      ],
      "max": [
        0.08840987831354141,
        0.07219107449054718,
        0.009999999776482582
      ],
      "type": "VEC3"
    },
    {
      "bufferView": 2,
      "byteOffset": 0,
      "componentType": 5126,
      "normalized": false,
      "count": 906,
      "min": [
        0,
        0.05650508403778076
      ],
      "max": [
        1,
        1
      ],
      "type": "VEC2"
    },
    {
      "bufferView": 3,
      "byteOffset": 0,
      "componentType": 5125,
      "normalized": false,
      "count": 3060,
      "min": [
        0
      ],
      "max": [
        905
      ],
      "type": "SCALAR"
    }
  ],
  "scene": 0,
  "scenes": [
    {
      "nodes": [
        0
      ],
      "name": "wall"
    }
  ],
  "nodes": [
    {
      "mesh": 0
    }
  ],
  "meshes": [
    {
      "primitives": [
        {
          "material": 0,
          "mode": 4,
          "attributes": {
            "NORMAL": 0,
            "POSITION": 1,
            "TEXCOORD_0": 2
          },
          "indices": 3
        }
      ]
    }
  ],
  "materials": [
    {
      "name": "",
      "pbrMetallicRoughness": {
        "baseColorFactor": [
          0.803921568627451,
          0.803921568627451,
          0.803921568627451,
          1
        ],
        "metallicFactor": 0.2,
        "roughnessFactor": 0.4000000059604645
      },
      "emissiveFactor": [
        0,
        0,
        0
      ],
      "alphaMode": "OPAQUE",
      "doubleSided": true
    }
  ]
}